<svg xmlns="http://www.w3.org/2000/svg" xmlns:xlink="http://www.w3.org/1999/xlink" width="500" zoomAndPan="magnify" viewBox="0 0 375 374.999991" height="500" preserveAspectRatio="xMidYMid meet" version="1.0"><defs><g/><clipPath id="23e4f5e8e3"><path d="M 52.425781 135.035156 L 169.839844 135.035156 L 169.839844 239 L 52.425781 239 Z M 52.425781 135.035156 " clip-rule="nonzero"/></clipPath></defs><g clip-path="url(#23e4f5e8e3)"><path fill="#e9d768" d="M 54.558594 171.855469 L 52.464844 172.914062 L 59.921875 177.0625 C 58.824219 185.816406 59.882812 198.066406 67.929688 208.605469 L 67.929688 198.898438 L 91.203125 236.441406 L 102.121094 238.707031 L 108.1875 234.851562 L 108.1875 188.394531 C 108.1875 181.503906 103.464844 174.257812 95.617188 174.273438 L 95.207031 172.710938 L 98.109375 172.726562 C 107.402344 172.773438 117.21875 174.953125 117.226562 189.078125 C 117.226562 209.683594 117.226562 189.425781 117.234375 233.828125 C 117.234375 240.136719 126.515625 238.242188 131.65625 235.570312 C 135.929688 233.351562 139.820312 230.476562 143.203125 227.101562 C 151.6875 218.609375 156.9375 206.878906 156.9375 193.925781 C 156.9375 180.96875 151.6875 169.246094 143.203125 160.753906 C 134.722656 152.273438 122.992188 147.019531 110.039062 147.019531 C 107.308594 147.019531 104.640625 147.253906 102.046875 147.695312 C 107.183594 145.761719 112.753906 144.695312 118.574219 144.695312 C 144.472656 144.695312 165.46875 165.699219 165.46875 191.597656 C 165.46875 192.792969 166.4375 193.757812 167.628906 193.757812 C 168.824219 193.757812 169.789062 192.792969 169.789062 191.597656 C 169.796875 160.359375 144.480469 135.035156 113.234375 135.035156 C 92.320312 135.035156 74.050781 146.390625 64.261719 163.28125 L 62.417969 167.507812 C 62.125 168.113281 61.832031 168.839844 61.546875 169.679688 Z M 83.925781 204.269531 L 78.773438 196.8125 C 75.765625 192.460938 84.015625 189.972656 83.972656 196.617188 Z M 83.925781 204.269531 " fill-opacity="1" fill-rule="evenodd"/></g><g fill="#39393a" fill-opacity="1"><g transform="translate(160.557116, 228.028365)"><g><path d="M 0.738281 0 L 4.644531 0 C 5.011719 0 5.34375 -0.175781 5.421875 -0.640625 L 5.90625 -3.886719 L 10.183594 -3.886719 L 10.6875 -0.640625 C 10.765625 -0.175781 11.09375 0 11.484375 0 L 15.371094 0 C 15.738281 0 15.855469 -0.273438 15.757812 -0.71875 L 10.472656 -26.210938 C 10.375 -26.679688 10.144531 -26.894531 9.734375 -26.894531 L 6.375 -26.894531 C 5.984375 -26.894531 5.75 -26.679688 5.636719 -26.210938 L 0.371094 -0.738281 C 0.253906 -0.273438 0.371094 0 0.738281 0 Z M 6.527344 -8.003906 L 7.851562 -16.632812 L 8.042969 -18.90625 L 8.257812 -16.632812 L 9.558594 -8.003906 Z M 6.527344 -8.003906 "/></g></g><g transform="translate(176.665627, 228.028365)"><g><path d="M 6.722656 0.371094 C 8.394531 0.371094 9.734375 -0.386719 10.6875 -1.535156 L 10.863281 -0.777344 C 11.054688 -0.117188 11.210938 0 11.660156 0 L 13.894531 0 C 14.320312 0 14.535156 -0.234375 14.535156 -0.640625 L 14.535156 -26.230469 C 14.535156 -26.640625 14.320312 -26.894531 13.894531 -26.894531 L 10.222656 -26.894531 C 9.773438 -26.894531 9.597656 -26.640625 9.597656 -26.230469 L 9.597656 -19.316406 C 8.667969 -19.917969 7.617188 -20.265625 6.566406 -20.265625 C 3.496094 -20.265625 1.203125 -17.855469 1.203125 -14.28125 L 1.203125 -5.886719 C 1.203125 -2.3125 3.128906 0.371094 6.722656 0.371094 Z M 6.140625 -5.675781 L 6.140625 -14.222656 C 6.140625 -15.097656 6.839844 -15.953125 7.890625 -15.953125 C 8.957031 -15.953125 9.597656 -15.097656 9.597656 -14.242188 L 9.597656 -5.675781 C 9.597656 -4.800781 8.9375 -3.945312 7.890625 -3.945312 C 6.820312 -3.945312 6.140625 -4.800781 6.140625 -5.675781 Z M 6.140625 -5.675781 "/></g></g><g transform="translate(192.560395, 228.028365)"><g><path d="M 0.484375 -18.847656 L 5.246094 -0.601562 C 5.34375 -0.195312 5.558594 0 5.964844 0 L 9.792969 0 C 10.164062 0 10.394531 -0.175781 10.53125 -0.582031 L 15.292969 -18.847656 C 15.46875 -19.449219 15.390625 -19.898438 14.75 -19.898438 L 11.09375 -19.898438 C 10.707031 -19.898438 10.414062 -19.722656 10.316406 -19.296875 L 8.023438 -7.792969 L 7.871094 -6.394531 L 7.734375 -7.753906 L 5.441406 -19.257812 C 5.382812 -19.683594 5.128906 -19.898438 4.722656 -19.898438 L 1.011719 -19.898438 C 0.503906 -19.898438 0.3125 -19.546875 0.484375 -18.847656 Z M 0.484375 -18.847656 "/></g></g><g transform="translate(208.338574, 228.028365)"><g><path d="M 1.03125 -5.539062 C 1.03125 -2.253906 3.984375 0.371094 7.636719 0.371094 C 11.367188 0.371094 13.914062 -2.253906 13.914062 -5.539062 L 13.914062 -6.101562 C 13.914062 -6.488281 13.71875 -6.605469 13.40625 -6.605469 L 10.027344 -6.605469 C 9.65625 -6.605469 9.484375 -6.375 9.484375 -6.140625 L 9.484375 -5.578125 C 9.484375 -4.722656 8.859375 -3.828125 7.753906 -3.828125 C 6.683594 -3.828125 5.945312 -4.683594 5.945312 -5.539062 L 5.945312 -8.839844 L 13.195312 -8.839844 C 13.640625 -8.839844 13.953125 -9.113281 13.953125 -9.558594 L 13.953125 -14.378906 C 13.953125 -17.625 11.367188 -20.265625 7.636719 -20.265625 C 3.984375 -20.265625 1.03125 -17.625 1.03125 -14.378906 Z M 5.945312 -14.339844 C 5.945312 -15.214844 6.683594 -16.050781 7.753906 -16.050781 C 8.800781 -16.050781 9.484375 -15.214844 9.484375 -14.320312 L 9.484375 -12.164062 L 5.945312 -12.164062 Z M 5.945312 -14.339844 "/></g></g><g transform="translate(223.242348, 228.028365)"><g><path d="M 1.902344 0 L 5.441406 0 C 5.789062 0 6.238281 -0.234375 6.238281 -0.796875 L 6.238281 -14.164062 C 6.277344 -15.097656 6.996094 -15.953125 7.984375 -15.953125 C 9.152344 -15.953125 9.695312 -15.019531 9.695312 -14.105469 L 9.695312 -0.660156 C 9.695312 -0.234375 9.949219 0 10.296875 0 L 14.03125 0 C 14.359375 0 14.632812 -0.234375 14.632812 -0.660156 L 14.632812 -14.261719 C 14.632812 -17.933594 12.242188 -20.265625 8.9375 -20.265625 C 7.539062 -20.265625 6.277344 -19.644531 5.246094 -18.691406 L 5.089844 -19.296875 C 4.953125 -19.761719 4.722656 -19.898438 4.234375 -19.898438 L 1.921875 -19.898438 C 1.554688 -19.898438 1.300781 -19.683594 1.300781 -19.238281 L 1.300781 -0.679688 C 1.300781 -0.234375 1.574219 0 1.902344 0 Z M 1.902344 0 "/></g></g><g transform="translate(239.039959, 228.028365)"><g><path d="M 0.332031 -16.285156 C 0.332031 -15.816406 0.699219 -15.5625 0.914062 -15.5625 L 2.058594 -15.5625 L 2.058594 -5.808594 C 2.058594 -1.261719 4.46875 0 7.460938 0 L 8.6875 0 C 9.714844 0 9.753906 -0.351562 9.753906 -0.621094 L 9.753906 -3.691406 C 9.753906 -3.964844 9.734375 -4.410156 9.171875 -4.410156 L 8.839844 -4.410156 C 7.421875 -4.410156 6.996094 -5.011719 6.996094 -6.101562 L 6.996094 -15.5625 L 8.898438 -15.5625 C 9.25 -15.5625 9.5 -15.855469 9.5 -16.285156 L 9.5 -19.199219 C 9.5 -19.683594 9.308594 -19.917969 8.957031 -19.917969 L 6.996094 -19.917969 L 6.996094 -24.113281 C 6.996094 -24.523438 6.761719 -24.753906 6.414062 -24.753906 C 6.355469 -24.753906 6.296875 -24.753906 6.238281 -24.734375 L 2.605469 -23.667969 C 2.175781 -23.550781 2.058594 -23.335938 2.058594 -22.890625 L 2.058594 -19.917969 L 0.914062 -19.917969 C 0.679688 -19.917969 0.332031 -19.664062 0.332031 -19.160156 Z M 0.332031 -16.285156 "/></g></g><g transform="translate(249.629993, 228.028365)"><g><path d="M 1.203125 -19.238281 L 1.203125 -5.636719 C 1.203125 -1.960938 3.59375 0.371094 6.898438 0.371094 C 8.277344 0.371094 9.539062 -0.253906 10.589844 -1.203125 L 10.746094 -0.601562 C 10.882812 -0.136719 11.09375 0 11.582031 0 L 13.894531 0 C 14.261719 0 14.515625 -0.214844 14.515625 -0.660156 L 14.515625 -19.21875 C 14.515625 -19.664062 14.242188 -19.898438 13.933594 -19.898438 L 10.375 -19.898438 C 10.046875 -19.898438 9.597656 -19.664062 9.597656 -19.101562 L 9.597656 -5.789062 C 9.597656 -4.820312 8.859375 -3.945312 7.851562 -3.945312 C 6.742188 -3.945312 6.179688 -4.78125 6.121094 -5.65625 L 6.121094 -19.238281 C 6.121094 -19.664062 5.886719 -19.898438 5.539062 -19.898438 L 1.808594 -19.898438 C 1.457031 -19.898438 1.203125 -19.664062 1.203125 -19.238281 Z M 1.203125 -19.238281 "/></g></g></g><g fill="#39393a" fill-opacity="1"><g transform="translate(265.447036, 228.028365)"><g><path d="M 1.128906 -0.679688 C 1.128906 -0.234375 1.378906 0 1.710938 0 L 5.167969 0 C 5.519531 0 6.042969 -0.234375 6.042969 -0.914062 L 6.042969 -12.804688 C 6.042969 -14.671875 7.113281 -15.816406 8.726562 -15.816406 L 9.714844 -15.816406 C 10.183594 -15.816406 10.628906 -16.03125 10.628906 -16.554688 L 10.628906 -19.355469 C 10.628906 -19.722656 10.433594 -20.015625 10.066406 -20.113281 C 9.5 -20.246094 8.820312 -20.265625 7.949219 -20.265625 C 4.820312 -20.265625 1.128906 -18.382812 1.128906 -13.464844 Z M 1.128906 -0.679688 "/></g></g></g><g fill="#39393a" fill-opacity="1"><g transform="translate(276.464558, 228.028365)"><g><path d="M 1.03125 -5.539062 C 1.03125 -2.253906 3.984375 0.371094 7.636719 0.371094 C 11.367188 0.371094 13.914062 -2.253906 13.914062 -5.539062 L 13.914062 -6.101562 C 13.914062 -6.488281 13.71875 -6.605469 13.40625 -6.605469 L 10.027344 -6.605469 C 9.65625 -6.605469 9.484375 -6.375 9.484375 -6.140625 L 9.484375 -5.578125 C 9.484375 -4.722656 8.859375 -3.828125 7.753906 -3.828125 C 6.683594 -3.828125 5.945312 -4.683594 5.945312 -5.539062 L 5.945312 -8.839844 L 13.195312 -8.839844 C 13.640625 -8.839844 13.953125 -9.113281 13.953125 -9.558594 L 13.953125 -14.378906 C 13.953125 -17.625 11.367188 -20.265625 7.636719 -20.265625 C 3.984375 -20.265625 1.03125 -17.625 1.03125 -14.378906 Z M 5.945312 -14.339844 C 5.945312 -15.214844 6.683594 -16.050781 7.753906 -16.050781 C 8.800781 -16.050781 9.484375 -15.214844 9.484375 -14.320312 L 9.484375 -12.164062 L 5.945312 -12.164062 Z M 5.945312 -14.339844 "/></g></g></g><g fill="#39393a" fill-opacity="1"><g transform="translate(291.368331, 228.028365)"><g><path d="M 1.128906 -0.679688 C 1.128906 -0.234375 1.378906 0 1.710938 0 L 5.167969 0 C 5.519531 0 6.042969 -0.234375 6.042969 -0.914062 L 6.042969 -12.804688 C 6.042969 -14.671875 7.113281 -15.816406 8.726562 -15.816406 L 9.714844 -15.816406 C 10.183594 -15.816406 10.628906 -16.03125 10.628906 -16.554688 L 10.628906 -19.355469 C 10.628906 -19.722656 10.433594 -20.015625 10.066406 -20.113281 C 9.5 -20.246094 8.820312 -20.265625 7.949219 -20.265625 C 4.820312 -20.265625 1.128906 -18.382812 1.128906 -13.464844 Z M 1.128906 -0.679688 "/></g></g></g><g fill="#39393a" fill-opacity="1"><g transform="translate(302.385853, 228.028365)"><g><path d="M 5.75 -14.378906 C 5.75 -15.3125 6.394531 -16.070312 7.402344 -16.070312 C 8.355469 -16.070312 9.074219 -15.410156 9.074219 -14.457031 L 9.074219 -14.183594 C 9.074219 -13.816406 9.230469 -13.601562 9.675781 -13.601562 L 12.746094 -13.601562 C 13.289062 -13.601562 13.484375 -13.640625 13.484375 -14.046875 L 13.484375 -14.378906 C 13.484375 -17.855469 11.308594 -20.265625 7.191406 -20.265625 C 3.515625 -20.265625 0.875 -17.761719 0.875 -14.476562 C 0.875 -11.851562 2.371094 -10.183594 4.429688 -8.9375 C 6.453125 -7.617188 8.898438 -6.859375 8.898438 -5.480469 C 8.898438 -4.46875 8.0625 -3.847656 7.113281 -3.847656 C 6.160156 -3.847656 5.324219 -4.429688 5.324219 -5.402344 L 5.324219 -5.769531 C 5.324219 -6.179688 5.148438 -6.375 4.820312 -6.375 L 1.632812 -6.375 C 1.03125 -6.375 0.679688 -6.21875 0.679688 -5.808594 L 0.679688 -5.539062 C 0.679688 -2.507812 1.941406 0.371094 7.304688 0.371094 C 11.210938 0.371094 13.816406 -2.058594 13.816406 -5.460938 C 13.816406 -8.082031 11.910156 -10.125 9.132812 -11.582031 C 6.644531 -12.921875 5.75 -13.15625 5.75 -14.378906 Z M 5.75 -14.378906 "/></g></g></g></svg>